<svg xmlns="http://www.w3.org/2000/svg" viewBox="0 0 1920 1280"><defs><style>.cls-1{isolation:isolate;}.cls-2{fill:#1a273a;}.cls-3{fill:#f2779f;}.cls-4{opacity:0.42;mix-blend-mode:multiply;}</style></defs><g class="cls-1"><g id="Layer_1" data-name="Layer 1"><path class="cls-2" d="M1014,524.06c174.46-141.13,445.23,10.73,395.06,243.4-28.34,131.37-166,211.6-280.16,259.09-145.16,60.33-321.33,84.84-474.91,43.67-9-2.49-11.88-12.26-9.58-19.73,1.72-5.55,6.32-9.76,13.41-9,218.11,23,436.61,4.21,615.85-137.11,103.8-81.77,150.33-230,51.32-338-83.49-91.16-223.28-82.16-312.71-5.94-7.85,6.51-17.62,2.49-21.07-4.41-9.19-1.34-17.62-9.19-14.74-20.87,29.87-119.88-17.43-262.35-145.73-301C697,193.73,590.93,284.31,560.1,409.35c-51.89,209.31-5.17,438.34,78.9,632.53a13.26,13.26,0,0,1,.77,8c-2.11,10.15-16.28,15.89-22,4.4A1000.58,1000.58,0,0,1,506.67,590.13c.58-120.07,12.64-275,117-353.7,84.45-64,211.41-59.55,294.52,4.41C1005.14,308.05,1033.1,420.27,1014,524.06Z"/><path class="cls-3" d="M1324.94,566.39c99,108,52.48,256.22-51.32,338-179.24,141.32-397.74,160.09-615.85,137.11-7.09-.76-11.69,3.45-13.41,9l-4.59-.57a13.26,13.26,0,0,0-.77-8c-84.07-194.19-130.79-423.22-78.9-632.53,30.83-125,136.92-215.62,270.59-175.21,128.3,38.68,175.6,181.15,145.73,301C973.54,546.85,982,554.7,991.16,556c3.45,6.9,13.22,10.92,21.07,4.41C1101.66,484.23,1241.45,475.23,1324.94,566.39Z"/><g class="cls-4"><path class="cls-2" d="M541.17,663.08c-6.49-85.41-1.55-171.1,18.94-253.72C590.93,284.3,697,193.73,830.69,234.14c128.3,38.68,175.6,181.15,145.73,301-2.87,11.68,5.55,19.53,14.74,20.88,3.45,6.89,13.21,10.91,21.07,4.4,89.43-76.21,229.22-85.22,312.72,5.94,57.82,63.08,65.75,139.81,41.87,209.08q16.37,12.07,32.15,24.93a229.68,229.68,0,0,0,10-32.94c50.17-232.68-220.6-384.53-395.06-243.39,19.15-103.8-8.81-216-95.75-283.23-83.11-64-210.07-68.37-294.52-4.41-104.37,78.71-116.43,233.63-117,353.7-.15,30.26,1.49,60.29,4,90.18C520.62,674.17,530.87,668.6,541.17,663.08Z"/><path class="cls-3" d="M905.34,598c167.74,18.95,328.33,79,461.48,177.49,23.88-69.27,16-146-41.87-209.08-83.5-91.16-223.29-82.15-312.72-5.94-7.86,6.51-17.62,2.49-21.07-4.4-9.19-1.35-17.61-9.2-14.74-20.88,29.87-119.88-17.43-262.35-145.73-301C697,193.73,590.93,284.3,560.11,409.36,539.62,492,534.68,577.67,541.17,663.08,646.13,606.76,769.66,582.66,905.34,598Z"/></g><path class="cls-2" d="M689.09,282.25C636.27,317.67,610,387.66,610.25,449.17c0,7.67,11.42,7.57,11.84,0,3.67-65.83,31.77-110,73.69-158.24C699.65,286.47,694.61,278.55,689.09,282.25Z"/><path class="cls-2" d="M771.14,296.87c-44.24,10.36-78.75,58.94-85.26,101.93-1,6.58,8.42,9.61,10.26,2.82C702,380.05,711,360.48,726,343.7c14.36-16.08,31.67-25,49.81-35.76C781.81,304.39,777.79,295.31,771.14,296.87Z"/><path class="cls-2" d="M934.48,966.5C881,982,828.17,988,772.68,982.08c-5.6-.6-7,9.15-1.34,9.92,56,7.63,112.53,4.23,166.51-13.3C945.55,976.2,942.36,964.22,934.48,966.5Z"/><path class="cls-2" d="M934.57,886.71c-34.38,26.1-69.37,42.06-113,44.53-5.58.33-5.67,8.68,0,8.76,43.51.6,88.19-13.78,120.6-43.46C947.29,891.84,940.31,882.36,934.57,886.71Z"/></g></g></svg>